<svg width="143" height="48" viewBox="0 0 143 48" fill="none" xmlns="http://www.w3.org/2000/svg">
<path d="M5.841 19.391L4.125 35H1.32L4.125 10.745L13.365 27.476L22.605 10.745L25.41 35H22.605L20.889 19.391L13.365 32.855L5.841 19.391ZM29.1908 13.55C29.1908 13.044 29.3668 12.615 29.7188 12.263C30.0928 11.911 30.5218 11.735 31.0058 11.735C31.5118 11.735 31.9408 11.911 32.2928 12.263C32.6448 12.615 32.8208 13.044 32.8208 13.55C32.8208 14.034 32.6448 14.463 32.2928 14.837C31.9408 15.189 31.5118 15.365 31.0058 15.365C30.5218 15.365 30.0928 15.189 29.7188 14.837C29.3668 14.463 29.1908 14.034 29.1908 13.55ZM29.6858 19.82H32.3258V35H29.6858V19.82ZM47.4981 25.76C47.4981 24.506 47.2231 23.56 46.6731 22.922C46.1231 22.284 45.3201 21.965 44.2641 21.965C43.4941 21.965 42.8121 22.13 42.2181 22.46C41.6461 22.768 41.1951 23.208 40.8651 23.78C40.5571 24.352 40.4031 25.012 40.4031 25.76V35H37.7631V19.82H40.4031V22.196C40.9091 21.272 41.5361 20.59 42.2841 20.15C43.0541 19.71 43.9341 19.49 44.9241 19.49C46.5301 19.49 47.7951 20.029 48.7191 21.107C49.6651 22.163 50.1381 23.604 50.1381 25.43V35H47.4981V25.76ZM55.101 13.55C55.101 13.044 55.277 12.615 55.629 12.263C56.003 11.911 56.432 11.735 56.916 11.735C57.422 11.735 57.851 11.911 58.203 12.263C58.555 12.615 58.731 13.044 58.731 13.55C58.731 14.034 58.555 14.463 58.203 14.837C57.851 15.189 57.422 15.365 56.916 15.365C56.432 15.365 56.003 15.189 55.629 14.837C55.277 14.463 55.101 14.034 55.101 13.55ZM55.596 19.82H58.236V35H55.596V19.82ZM64.6962 28.004C65.2242 28.928 65.7742 29.742 66.3462 30.446C66.9402 31.15 67.6002 31.7 68.3262 32.096C69.0522 32.492 69.8772 32.69 70.8012 32.69C72.0332 32.69 73.0232 32.349 73.7712 31.667C74.5192 30.985 74.8932 30.116 74.8932 29.06C74.8932 28.026 74.6512 27.201 74.1672 26.585C73.6832 25.969 73.0452 25.474 72.2532 25.1C71.4832 24.704 70.6582 24.352 69.7782 24.044C69.2062 23.846 68.5682 23.593 67.8642 23.285C67.1602 22.955 66.4892 22.548 65.8512 22.064C65.2132 21.558 64.6852 20.942 64.2672 20.216C63.8712 19.49 63.6732 18.599 63.6732 17.543C63.6732 16.399 63.9592 15.376 64.5312 14.474C65.1032 13.572 65.8952 12.868 66.9072 12.362C67.9192 11.834 69.0742 11.57 70.3722 11.57C71.6262 11.57 72.7152 11.812 73.6392 12.296C74.5852 12.758 75.3882 13.363 76.0482 14.111C76.7082 14.837 77.2252 15.607 77.5992 16.421L75.1902 17.807C74.9042 17.235 74.5412 16.674 74.1012 16.124C73.6612 15.574 73.1222 15.123 72.4842 14.771C71.8682 14.419 71.1092 14.243 70.2072 14.243C68.9532 14.243 68.0402 14.551 67.4682 15.167C66.8962 15.761 66.6102 16.432 66.6102 17.18C66.6102 17.818 66.7752 18.412 67.1052 18.962C67.4352 19.49 67.9852 19.996 68.7552 20.48C69.5472 20.942 70.6142 21.404 71.9562 21.866C72.5722 22.086 73.2212 22.372 73.9032 22.724C74.5852 23.076 75.2122 23.527 75.7842 24.077C76.3782 24.605 76.8622 25.254 77.2362 26.024C77.6102 26.772 77.7972 27.674 77.7972 28.73C77.7972 29.742 77.5992 30.655 77.2032 31.469C76.8292 32.283 76.3012 32.976 75.6192 33.548C74.9592 34.12 74.2002 34.56 73.3422 34.868C72.5062 35.176 71.6262 35.33 70.7022 35.33C69.4482 35.33 68.2822 35.066 67.2042 34.538C66.1482 33.988 65.2132 33.273 64.3992 32.393C63.6072 31.491 62.9582 30.534 62.4522 29.522L64.6962 28.004ZM79.4423 19.82H87.0323V22.295H79.4423V19.82ZM81.9173 14.54H84.5573V35H81.9173V14.54ZM88.3601 27.41C88.3601 25.87 88.7011 24.506 89.3831 23.318C90.0871 22.13 91.0331 21.195 92.2211 20.513C93.4091 19.831 94.7401 19.49 96.2141 19.49C97.7101 19.49 99.0411 19.831 100.207 20.513C101.395 21.195 102.33 22.13 103.012 23.318C103.716 24.506 104.068 25.87 104.068 27.41C104.068 28.928 103.716 30.292 103.012 31.502C102.33 32.69 101.395 33.625 100.207 34.307C99.0411 34.989 97.7101 35.33 96.2141 35.33C94.7401 35.33 93.4091 34.989 92.2211 34.307C91.0331 33.625 90.0871 32.69 89.3831 31.502C88.7011 30.292 88.3601 28.928 88.3601 27.41ZM91.0331 27.41C91.0331 28.466 91.2531 29.401 91.6931 30.215C92.1551 31.029 92.7711 31.678 93.5411 32.162C94.3331 32.624 95.2241 32.855 96.2141 32.855C97.2041 32.855 98.0841 32.624 98.8541 32.162C99.6461 31.678 100.262 31.029 100.702 30.215C101.164 29.401 101.395 28.466 101.395 27.41C101.395 26.354 101.164 25.419 100.702 24.605C100.262 23.769 99.6461 23.12 98.8541 22.658C98.0841 22.196 97.2041 21.965 96.2141 21.965C95.2241 21.965 94.3331 22.196 93.5411 22.658C92.7711 23.12 92.1551 23.769 91.6931 24.605C91.2531 25.419 91.0331 26.354 91.0331 27.41ZM110.335 19.82V35H107.695V19.82H110.335ZM114.922 22.724C114.57 22.46 114.251 22.273 113.965 22.163C113.679 22.031 113.316 21.965 112.876 21.965C112.216 21.965 111.699 22.13 111.325 22.46C110.951 22.79 110.687 23.241 110.533 23.813C110.401 24.385 110.335 25.034 110.335 25.76H109.147C109.147 24.55 109.356 23.483 109.774 22.559C110.214 21.613 110.775 20.865 111.457 20.315C112.139 19.765 112.832 19.49 113.536 19.49C114.086 19.49 114.592 19.567 115.054 19.721C115.538 19.853 115.978 20.128 116.374 20.546L114.922 22.724ZM124.397 35.33C122.989 35.33 121.735 35 120.635 34.34C119.557 33.658 118.71 32.723 118.094 31.535C117.5 30.347 117.203 28.972 117.203 27.41C117.203 25.826 117.511 24.44 118.127 23.252C118.765 22.064 119.645 21.14 120.767 20.48C121.911 19.82 123.231 19.49 124.727 19.49C126.223 19.49 127.499 19.809 128.555 20.447C129.633 21.063 130.458 21.954 131.03 23.12C131.602 24.286 131.888 25.672 131.888 27.278C131.888 27.432 131.877 27.597 131.855 27.773C131.855 27.927 131.855 28.026 131.855 28.07H118.886V25.826H129.776L128.72 27.344C128.786 27.234 128.852 27.069 128.918 26.849C128.984 26.607 129.017 26.409 129.017 26.255C129.017 25.353 128.83 24.572 128.456 23.912C128.104 23.252 127.609 22.735 126.971 22.361C126.333 21.987 125.585 21.8 124.727 21.8C123.715 21.8 122.846 22.02 122.12 22.46C121.416 22.878 120.866 23.494 120.47 24.308C120.096 25.1 119.898 26.079 119.876 27.245C119.876 28.433 120.063 29.445 120.437 30.281C120.811 31.117 121.361 31.755 122.087 32.195C122.813 32.635 123.693 32.855 124.727 32.855C125.761 32.855 126.674 32.635 127.466 32.195C128.258 31.733 128.929 31.04 129.479 30.116L131.624 31.469C130.832 32.745 129.831 33.713 128.621 34.373C127.433 35.011 126.025 35.33 124.397 35.33Z" fill="#272727"/>
<path d="M136.166 33.68C136.166 33.174 136.342 32.745 136.694 32.393C137.068 32.041 137.497 31.865 137.981 31.865C138.487 31.865 138.916 32.041 139.268 32.393C139.62 32.745 139.796 33.174 139.796 33.68C139.796 34.164 139.62 34.593 139.268 34.967C138.916 35.319 138.487 35.495 137.981 35.495C137.497 35.495 137.068 35.319 136.694 34.967C136.342 34.593 136.166 34.164 136.166 33.68Z" fill="#72AEC8"/>
</svg>
